# xmcd
#
# Track frame offsets:
#	150
#	14237
#	28408
#	43822
#	83021
#	99976
#	116080
#	149416
#	170064
#	187522
#	206183
#	231847
#	259344
#
# Disc length: 3834 seconds
#
# Revision: 0
# Processed by: cddbd v1.5.2PL0 Copyright (c) Steve Scherf et al.
# Submitted via: dBpowerAMP V4.0
#
DISCID=bd0ef80d
DTITLE=Andy Egert Blues Band - I`m a Bluesman
DYEAR=1900
DGENRE=Blues
TTITLE0=What goes on in the dark
TTITLE1=Fire on the crossroad
TTITLE2=Rough and ready
TTITLE3=12 days of rain
TTITLE4=Big legged woman
TTITLE5=I`m a bluesman
TTITLE6=I`m tore down
TTITLE7=Rambling on my mind
TTITLE8=The hunter
TTITLE9=Johnny guitar
TTITLE10=Hear mi calling
TTITLE11=On the road again
TTITLE12=All your love
EXTD=
EXTT0=
EXTT1=
EXTT2=
EXTT3=
EXTT4=
EXTT5=
EXTT6=
EXTT7=
EXTT8=
EXTT9=
EXTT10=
EXTT11=
EXTT12=
PLAYORDER=
